<?xml version="1.0" encoding="UTF-8" standalone="no"?>
<!DOCTYPE svg PUBLIC "-//W3C//DTD SVG 1.1//EN" "http://www.w3.org/Graphics/SVG/1.1/DTD/svg11.dtd">
<svg xmlns="http://www.w3.org/2000/svg" version="1.1" viewBox="0.00 0.00 1024.00 1024.00">
<path fill="#dcdbe1" d="
  M 1024.00 0.00
  L 1024.00 1024.00
  L 0.00 1024.00
  L 0.00 0.00
  L 1024.00 0.00
  Z
  M 354.93 86.21
  L 348.45 89.44
  L 324.35 100.55
  L 314.15 105.82
  L 303.22 112.10
  L 259.33 137.85
  L 249.09 144.22
  L 239.43 151.11
  L 230.35 158.49
  L 221.85 166.39
  L 217.54 170.98
  L 211.63 177.77
  L 210.57 179.02
  L 198.81 192.60
  L 189.84 202.19
  L 177.57 214.55
  L 172.71 220.05
  L 165.85 228.81
  L 161.82 234.65
  L 155.74 244.21
  L 142.23 265.35
  L 130.06 283.21
  L 116.95 301.95
  L 113.23 307.95
  L 109.87 314.65
  L 106.67 322.42
  L 103.25 332.26
  L 99.71 342.10
  L 95.73 351.80
  L 89.17 364.86
  L 85.90 371.96
  L 82.04 382.46
  L 79.37 391.24
  L 75.52 407.04
  L 72.20 422.93
  L 68.90 442.21
  L 66.36 461.64
  L 64.78 477.78
  L 63.53 494.49
  L 62.63 511.76
  L 62.06 529.58
  L 62.10 542.35
  L 62.80 554.88
  L 64.13 567.17
  L 66.12 579.21
  L 68.73 592.15
  L 71.51 604.89
  L 74.47 617.43
  L 77.60 629.77
  L 80.89 641.90
  L 84.36 653.82
  L 88.01 665.55
  L 91.82 677.07
  L 95.58 687.01
  L 100.02 696.77
  L 104.74 706.06
  L 109.57 715.06
  L 114.51 723.75
  L 119.56 732.15
  L 132.34 752.72
  L 135.51 758.00
  L 139.64 765.39
  L 144.65 774.29
  L 148.59 780.62
  L 152.48 786.01
  L 156.51 790.69
  L 169.21 804.30
  L 181.79 818.24
  L 194.24 832.50
  L 206.56 847.09
  L 209.75 850.76
  L 212.75 853.83
  L 215.56 856.33
  L 218.29 858.33
  L 232.84 868.21
  L 247.74 879.06
  L 255.18 884.46
  L 261.21 888.41
  L 270.22 893.78
  L 275.25 896.60
  L 310.02 914.27
  L 319.49 919.24
  L 327.82 923.88
  L 361.84 943.10
  L 371.25 947.99
  L 380.80 952.19
  L 390.49 955.68
  L 400.31 958.48
  L 420.34 963.23
  L 435.11 966.25
  L 444.84 967.81
  L 454.67 969.06
  L 464.61 969.99
  L 474.66 970.62
  L 490.17 971.23
  L 506.07 971.64
  L 522.35 971.85
  L 539.03 971.86
  L 550.63 971.65
  L 559.04 971.15
  L 565.92 970.37
  L 573.01 969.32
  L 580.29 967.97
  L 587.78 966.35
  L 604.90 962.22
  L 621.42 957.90
  L 627.30 956.18
  L 632.89 954.28
  L 638.18 952.22
  L 643.18 949.99
  L 671.32 936.13
  L 700.19 921.07
  L 715.43 912.56
  L 728.27 904.66
  L 736.24 899.13
  L 750.71 888.69
  L 759.60 883.14
  L 777.24 873.03
  L 783.78 868.88
  L 790.28 863.81
  L 796.74 857.83
  L 803.15 850.94
  L 814.80 836.96
  L 816.60 834.77
  L 822.92 827.85
  L 830.05 821.16
  L 838.34 814.32
  L 848.78 806.55
  L 852.89 803.45
  L 856.73 800.22
  L 860.30 796.88
  L 863.61 793.42
  L 868.56 787.21
  L 875.28 777.58
  L 896.74 745.86
  L 902.76 736.79
  L 907.51 729.01
  L 912.72 719.60
  L 917.84 709.60
  L 922.86 699.02
  L 927.77 687.86
  L 930.94 679.88
  L 934.83 669.18
  L 939.85 655.24
  L 945.29 640.76
  L 957.41 610.20
  L 961.78 599.22
  L 964.54 591.50
  L 967.27 582.13
  L 969.54 572.33
  L 971.39 561.97
  L 972.81 551.09
  L 973.81 539.66
  L 974.44 527.30
  L 974.70 513.83
  L 974.61 498.48
  L 974.30 486.46
  L 973.78 475.82
  L 973.04 466.54
  L 972.09 458.64
  L 970.14 446.89
  L 967.57 433.91
  L 964.38 419.69
  L 960.56 404.23
  L 956.24 388.78
  L 954.11 382.28
  L 951.91 376.28
  L 949.58 370.69
  L 947.12 365.46
  L 944.51 360.58
  L 941.75 356.03
  L 936.40 347.44
  L 931.29 338.60
  L 926.42 329.54
  L 921.79 320.23
  L 913.07 302.19
  L 908.19 293.26
  L 903.17 284.68
  L 898.01 276.46
  L 892.71 268.60
  L 879.18 249.41
  L 870.97 238.24
  L 865.71 231.79
  L 859.91 225.27
  L 825.81 188.43
  L 819.53 181.89
  L 812.75 175.35
  L 805.11 168.46
  L 795.67 160.37
  L 781.55 148.28
  L 762.57 131.63
  L 753.76 123.87
  L 745.54 117.01
  L 737.29 110.86
  L 729.02 105.41
  L 720.71 100.67
  L 713.47 96.98
  L 705.95 93.39
  L 698.09 89.86
  L 689.94 86.43
  L 672.56 79.75
  L 653.47 73.23
  L 643.53 70.15
  L 634.30 67.56
  L 621.28 64.31
  L 608.36 61.47
  L 595.34 59.00
  L 582.45 56.94
  L 569.53 55.26
  L 556.77 54.00
  L 543.96 53.12
  L 531.33 52.65
  L 514.82 52.45
  L 498.66 52.58
  L 482.83 53.02
  L 467.34 53.78
  L 452.33 55.06
  L 437.45 57.10
  L 437.45 57.10
  L 437.45 57.10
  L 425.53 59.30
  L 413.68 61.99
  L 401.91 65.18
  L 390.23 68.86
  L 386.26 70.18
  L 377.08 73.40
  L 373.89 74.77
  L 370.97 76.24
  L 369.60 77.03
  L 354.93 86.21
  Z"
/>
<path fill="#e5e3e9" d="
  M 354.93 86.21
  L 369.60 77.03
  L 370.97 76.24
  L 373.89 74.77
  L 377.08 73.40
  L 386.26 70.18
  L 390.23 68.86
  L 401.91 65.18
  L 413.68 61.99
  L 425.53 59.30
  L 437.45 57.10
  L 437.45 57.10
  L 437.45 57.10
  L 452.33 55.06
  L 467.34 53.78
  L 482.83 53.02
  L 498.66 52.58
  L 514.82 52.45
  L 531.33 52.65
  L 543.96 53.12
  L 556.77 54.00
  L 569.53 55.26
  L 582.45 56.94
  L 595.34 59.00
  L 608.36 61.47
  L 621.28 64.31
  L 634.30 67.56
  L 643.53 70.15
  L 653.47 73.23
  L 672.56 79.75
  L 689.94 86.43
  L 698.09 89.86
  L 705.95 93.39
  L 713.47 96.98
  L 720.71 100.67
  L 729.02 105.41
  L 737.29 110.86
  L 745.54 117.01
  L 753.76 123.87
  L 762.57 131.63
  L 781.55 148.28
  L 795.67 160.37
  L 805.11 168.46
  L 812.75 175.35
  L 819.53 181.89
  L 825.81 188.43
  L 859.91 225.27
  L 865.71 231.79
  L 870.97 238.24
  L 879.18 249.41
  L 892.71 268.60
  L 898.01 276.46
  L 903.17 284.68
  L 908.19 293.26
  L 913.07 302.19
  L 921.79 320.23
  L 926.42 329.54
  L 931.29 338.60
  L 936.40 347.44
  L 941.75 356.03
  L 944.51 360.58
  L 947.12 365.46
  L 949.58 370.69
  L 951.91 376.28
  L 954.11 382.28
  L 956.24 388.78
  L 960.56 404.23
  L 964.38 419.69
  L 967.57 433.91
  L 970.14 446.89
  L 972.09 458.64
  L 973.04 466.54
  L 973.78 475.82
  L 974.30 486.46
  L 974.61 498.48
  L 974.70 513.83
  L 974.44 527.30
  L 973.81 539.66
  L 972.81 551.09
  L 971.39 561.97
  L 969.54 572.33
  L 967.27 582.13
  L 964.54 591.50
  L 961.78 599.22
  L 957.41 610.20
  L 945.29 640.76
  L 939.85 655.24
  L 934.83 669.18
  L 930.94 679.88
  L 927.77 687.86
  L 922.86 699.02
  L 917.84 709.60
  L 912.72 719.60
  L 907.51 729.01
  L 902.76 736.79
  L 896.74 745.86
  L 875.28 777.58
  L 868.56 787.21
  L 863.61 793.42
  L 860.30 796.88
  L 856.73 800.22
  L 852.89 803.45
  L 848.78 806.55
  L 838.34 814.32
  L 830.05 821.16
  L 822.92 827.85
  L 816.60 834.77
  L 814.80 836.96
  L 803.15 850.94
  L 796.74 857.83
  L 790.28 863.81
  L 783.78 868.88
  L 777.24 873.03
  L 759.60 883.14
  L 750.71 888.69
  L 736.24 899.13
  L 728.27 904.66
  L 715.43 912.56
  L 700.19 921.07
  L 671.32 936.13
  L 643.18 949.99
  L 638.18 952.22
  L 632.89 954.28
  L 627.30 956.18
  L 621.42 957.90
  L 604.90 962.22
  L 587.78 966.35
  L 580.29 967.97
  L 573.01 969.32
  L 565.92 970.37
  L 559.04 971.15
  L 550.63 971.65
  L 539.03 971.86
  L 522.35 971.85
  L 506.07 971.64
  L 490.17 971.23
  L 474.66 970.62
  L 464.61 969.99
  L 454.67 969.06
  L 444.84 967.81
  L 435.11 966.25
  L 420.34 963.23
  L 400.31 958.48
  L 390.49 955.68
  L 380.80 952.19
  L 371.25 947.99
  L 361.84 943.10
  L 327.82 923.88
  L 319.49 919.24
  L 310.02 914.27
  L 275.25 896.60
  L 270.22 893.78
  L 261.21 888.41
  L 255.18 884.46
  L 247.74 879.06
  L 232.84 868.21
  L 218.29 858.33
  L 215.56 856.33
  L 212.75 853.83
  L 209.75 850.76
  L 206.56 847.09
  L 194.24 832.50
  L 181.79 818.24
  L 169.21 804.30
  L 156.51 790.69
  L 152.48 786.01
  L 148.59 780.62
  L 144.65 774.29
  L 139.64 765.39
  L 135.51 758.00
  L 132.34 752.72
  L 119.56 732.15
  L 114.51 723.75
  L 109.57 715.06
  L 104.74 706.06
  L 100.02 696.77
  L 95.58 687.01
  L 91.82 677.07
  L 88.01 665.55
  L 84.36 653.82
  L 80.89 641.90
  L 77.60 629.77
  L 74.47 617.43
  L 71.51 604.89
  L 68.73 592.15
  L 66.12 579.21
  L 64.13 567.17
  L 62.80 554.88
  L 62.10 542.35
  L 62.06 529.58
  L 62.63 511.76
  L 63.53 494.49
  L 64.78 477.78
  L 66.36 461.64
  L 68.90 442.21
  L 72.20 422.93
  L 75.52 407.04
  L 79.37 391.24
  L 82.04 382.46
  L 85.90 371.96
  L 89.17 364.86
  L 95.73 351.80
  L 99.71 342.10
  L 103.25 332.26
  L 106.67 322.42
  L 109.87 314.65
  L 113.23 307.95
  L 116.95 301.95
  L 130.06 283.21
  L 142.23 265.35
  L 155.74 244.21
  L 161.82 234.65
  L 165.85 228.81
  L 172.71 220.05
  L 177.57 214.55
  L 189.84 202.19
  L 198.81 192.60
  L 210.57 179.02
  L 211.63 177.77
  L 217.54 170.98
  L 221.85 166.39
  L 230.35 158.49
  L 239.43 151.11
  L 249.09 144.22
  L 259.33 137.85
  L 303.22 112.10
  L 314.15 105.82
  L 324.35 100.55
  L 348.45 89.44
  L 354.93 86.21
  Z
  M 258.87 763.21
  L 258.79 773.90
  L 258.79 773.90
  L 258.93 774.22
  L 259.25 774.35
  L 280.47 773.91
  L 282.90 777.71
  L 285.76 781.29
  L 289.05 784.65
  L 292.77 787.79
  L 300.97 793.83
  L 308.88 799.10
  L 324.05 808.87
  L 338.16 818.39
  L 346.43 824.48
  L 357.35 833.28
  L 360.47 835.84
  L 365.01 839.01
  L 373.76 844.52
  L 379.05 847.93
  L 386.27 852.87
  L 393.93 858.10
  L 401.40 862.59
  L 411.53 868.04
  L 415.59 870.03
  L 419.71 871.81
  L 423.88 873.41
  L 428.12 874.80
  L 428.12 874.80
  L 428.12 874.80
  L 434.15 876.42
  L 440.29 877.66
  L 448.23 878.77
  L 456.79 879.53
  L 465.97 879.93
  L 475.77 879.99
  L 497.79 879.44
  L 516.90 878.35
  L 531.57 877.36
  L 540.10 877.27
  L 551.59 877.61
  L 561.37 877.91
  L 568.07 877.86
  L 572.98 877.49
  L 577.60 876.77
  L 581.94 875.70
  L 585.98 874.27
  L 593.08 871.01
  L 600.72 866.81
  L 608.97 861.66
  L 619.97 854.22
  L 628.71 848.27
  L 632.77 845.80
  L 638.70 842.65
  L 641.02 841.45
  L 655.18 834.57
  L 667.37 828.74
  L 675.37 824.64
  L 691.09 815.68
  L 707.84 805.26
  L 726.04 793.13
  L 749.57 776.71
  L 753.49 773.82
  L 757.31 770.76
  L 760.91 767.62
  L 764.37 764.32
  L 767.55 761.00
  L 770.56 757.56
  L 773.31 754.08
  L 775.88 750.48
  L 783.97 738.24
  L 788.55 731.81
  L 805.63 709.18
  L 811.21 701.19
  L 816.91 691.78
  L 823.34 679.94
  L 829.17 668.10
  L 834.38 656.24
  L 838.99 644.37
  L 846.51 622.57
  L 849.74 612.35
  L 852.62 602.60
  L 854.63 595.12
  L 856.45 587.51
  L 858.11 579.66
  L 859.58 571.72
  L 862.01 555.28
  L 863.68 538.50
  L 865.68 513.68
  L 867.54 493.19
  L 867.81 489.03
  L 867.81 484.92
  L 867.55 480.86
  L 867.01 476.83
  L 867.01 476.83
  L 867.01 476.83
  L 867.01 476.83
  L 865.49 469.61
  L 862.64 458.84
  L 859.87 448.36
  L 850.96 411.87
  L 848.87 402.93
  L 847.20 394.50
  L 844.19 376.97
  L 842.88 369.60
  L 841.07 362.47
  L 838.77 355.57
  L 835.97 348.89
  L 835.97 348.89
  L 832.63 342.38
  L 828.78 336.10
  L 826.44 332.85
  L 823.77 329.64
  L 816.12 321.81
  L 814.62 320.34
  L 811.18 316.79
  L 807.98 313.10
  L 804.02 307.89
  L 800.24 302.11
  L 796.30 295.32
  L 790.88 285.19
  L 787.44 278.70
  L 783.21 271.40
  L 778.57 264.60
  L 770.24 253.71
  L 760.06 241.03
  L 754.13 234.19
  L 748.03 227.99
  L 741.76 222.41
  L 735.32 217.46
  L 724.78 210.38
  L 714.41 204.22
  L 695.01 193.70
  L 673.50 182.51
  L 663.00 177.52
  L 656.55 174.73
  L 652.32 173.09
  L 621.45 162.34
  L 610.28 158.79
  L 598.66 155.82
  L 586.60 153.42
  L 574.10 151.61
  L 568.03 151.03
  L 561.98 150.76
  L 557.33 150.70
  L 546.17 150.40
  L 541.99 150.04
  L 538.22 149.50
  L 531.44 148.23
  L 523.21 146.71
  L 517.17 145.83
  L 511.70 145.36
  L 506.56 145.29
  L 489.25 145.97
  L 469.97 147.14
  L 464.39 147.84
  L 462.39 148.37
  L 460.91 149.01
  L 456.28 151.37
  L 451.03 153.46
  L 445.17 155.28
  L 438.68 156.84
  L 408.39 163.19
  L 397.98 165.58
  L 389.94 167.89
  L 381.40 170.98
  L 372.19 174.83
  L 350.23 184.89
  L 327.48 195.94
  L 323.28 198.19
  L 319.04 200.78
  L 314.75 203.73
  L 310.41 207.04
  L 305.98 210.73
  L 301.36 214.87
  L 290.49 225.48
  L 280.87 235.45
  L 273.32 243.82
  L 268.42 249.64
  L 265.31 253.65
  L 254.28 268.79
  L 242.38 284.42
  L 235.55 293.45
  L 226.94 305.34
  L 217.13 318.83
  L 210.71 327.00
  L 201.84 337.57
  L 198.28 342.09
  L 195.21 346.78
  L 192.63 351.65
  L 190.54 356.69
  L 190.54 356.69
  L 188.92 361.98
  L 181.99 388.75
  L 179.22 398.13
  L 175.96 407.08
  L 172.21 415.60
  L 167.97 423.69
  L 166.38 426.47
  L 161.62 434.96
  L 158.52 441.16
  L 156.12 446.96
  L 154.32 452.71
  L 154.07 453.68
  L 152.25 462.28
  L 150.98 471.19
  L 150.25 480.40
  L 150.07 489.92
  L 150.32 498.55
  L 150.89 506.51
  L 151.81 513.81
  L 153.05 520.43
  L 158.09 539.04
  L 161.14 550.27
  L 162.81 557.76
  L 168.74 590.76
  L 172.11 606.43
  L 176.04 623.08
  L 177.77 629.45
  L 179.77 635.67
  L 182.06 641.75
  L 184.63 647.68
  L 192.99 665.00
  L 202.09 682.40
  L 204.42 686.37
  L 207.75 691.52
  L 217.40 705.36
  L 220.38 709.53
  L 229.96 722.55
  L 233.57 726.96
  L 237.18 730.97
  L 241.66 735.42
  L 245.20 738.54
  L 249.15 741.67
  L 253.53 744.81
  L 258.32 747.95
  L 258.65 748.29
  L 258.75 748.72
  L 258.87 763.21
  Z"
/>
<path fill="#ececef" d="
  M 280.47 773.91
  L 280.37 750.91
  L 280.52 750.06
  L 280.96 749.32
  L 288.72 740.35
  L 289.30 740.08
  L 289.89 740.32
  L 289.89 740.32
  L 289.94 740.39
  L 314.48 773.56
  L 314.88 773.90
  L 315.40 774.02
  L 340.69 774.02
  L 340.90 773.91
  L 340.94 773.68
  L 340.90 773.61
  L 304.68 724.66
  L 304.51 724.19
  L 304.74 723.72
  L 338.53 687.29
  L 338.91 686.76
  L 338.95 686.39
  L 338.95 686.39
  L 338.95 686.39
  L 338.65 686.15
  L 338.00 686.07
  L 315.53 686.00
  L 314.71 685.99
  L 312.69 686.07
  L 311.40 686.64
  L 311.14 686.89
  L 281.07 720.87
  L 280.78 721.05
  L 280.68 720.73
  L 280.68 686.44
  L 280.55 686.04
  L 280.15 685.91
  L 259.40 685.91
  L 259.00 686.04
  L 258.86 686.45
  L 258.87 763.21
  L 258.75 748.72
  L 258.65 748.29
  L 258.32 747.95
  L 253.53 744.81
  L 249.15 741.67
  L 245.20 738.54
  L 241.66 735.42
  L 237.18 730.97
  L 233.57 726.96
  L 229.96 722.55
  L 220.38 709.53
  L 217.40 705.36
  L 207.75 691.52
  L 204.42 686.37
  L 202.09 682.40
  L 192.99 665.00
  L 184.63 647.68
  L 182.06 641.75
  L 179.77 635.67
  L 177.77 629.45
  L 176.04 623.08
  L 172.11 606.43
  L 168.74 590.76
  L 162.81 557.76
  L 161.14 550.27
  L 158.09 539.04
  L 153.05 520.43
  L 151.81 513.81
  L 150.89 506.51
  L 150.32 498.55
  L 150.07 489.92
  L 150.25 480.40
  L 150.98 471.19
  L 152.25 462.28
  L 154.07 453.68
  L 154.32 452.71
  L 156.12 446.96
  L 158.52 441.16
  L 161.62 434.96
  L 166.38 426.47
  L 167.97 423.69
  L 172.21 415.60
  L 175.96 407.08
  L 179.22 398.13
  L 181.99 388.75
  L 188.92 361.98
  L 190.54 356.69
  L 190.54 356.69
  L 192.63 351.65
  L 195.21 346.78
  L 198.28 342.09
  L 201.84 337.57
  L 210.71 327.00
  L 217.13 318.83
  L 226.94 305.34
  L 235.55 293.45
  L 242.38 284.42
  L 254.28 268.79
  L 265.31 253.65
  L 268.42 249.64
  L 273.32 243.82
  L 280.87 235.45
  L 290.49 225.48
  L 301.36 214.87
  L 305.98 210.73
  L 310.41 207.04
  L 314.75 203.73
  L 319.04 200.78
  L 323.28 198.19
  L 327.48 195.94
  L 350.23 184.89
  L 372.19 174.83
  L 381.40 170.98
  L 389.94 167.89
  L 397.98 165.58
  L 408.39 163.19
  L 438.68 156.84
  L 445.17 155.28
  L 451.03 153.46
  L 456.28 151.37
  L 460.91 149.01
  L 462.39 148.37
  L 464.39 147.84
  L 469.97 147.14
  L 489.25 145.97
  L 506.56 145.29
  L 511.70 145.36
  L 517.17 145.83
  L 523.21 146.71
  L 531.44 148.23
  L 538.22 149.50
  L 541.99 150.04
  L 546.17 150.40
  L 557.33 150.70
  L 561.98 150.76
  L 568.03 151.03
  L 574.10 151.61
  L 586.60 153.42
  L 598.66 155.82
  L 610.28 158.79
  L 621.45 162.34
  L 652.32 173.09
  L 656.55 174.73
  L 663.00 177.52
  L 673.50 182.51
  L 695.01 193.70
  L 714.41 204.22
  L 724.78 210.38
  L 735.32 217.46
  L 741.76 222.41
  L 748.03 227.99
  L 754.13 234.19
  L 760.06 241.03
  L 770.24 253.71
  L 778.57 264.60
  L 783.21 271.40
  L 787.44 278.70
  L 790.88 285.19
  L 796.30 295.32
  L 800.24 302.11
  L 804.02 307.89
  L 807.98 313.10
  L 811.18 316.79
  L 814.62 320.34
  L 816.12 321.81
  L 823.77 329.64
  L 826.44 332.85
  L 828.78 336.10
  L 832.63 342.38
  L 835.97 348.89
  L 835.97 348.89
  L 835.97 348.89
  L 838.77 355.57
  L 841.07 362.47
  L 842.88 369.60
  L 844.19 376.97
  L 847.20 394.50
  L 848.87 402.93
  L 850.96 411.87
  L 859.87 448.36
  L 862.64 458.84
  L 865.49 469.61
  L 867.01 476.83
  L 867.01 476.83
  L 867.01 476.83
  L 867.55 480.86
  L 867.81 484.92
  L 867.81 489.03
  L 867.54 493.19
  L 865.68 513.68
  L 863.68 538.50
  L 862.01 555.28
  L 859.58 571.72
  L 858.11 579.66
  L 856.45 587.51
  L 854.63 595.12
  L 852.62 602.60
  L 849.74 612.35
  L 846.51 622.57
  L 838.99 644.37
  L 834.38 656.24
  L 829.17 668.10
  L 823.34 679.94
  L 816.91 691.78
  L 811.21 701.19
  L 805.63 709.18
  L 788.55 731.81
  L 783.97 738.24
  L 775.88 750.48
  L 773.31 754.08
  L 770.56 757.56
  L 767.55 761.00
  L 764.37 764.32
  L 760.91 767.62
  L 757.31 770.76
  L 753.49 773.82
  L 749.57 776.71
  L 726.04 793.13
  L 707.84 805.26
  L 691.09 815.68
  L 675.37 824.64
  L 667.37 828.74
  L 655.18 834.57
  L 641.02 841.45
  L 638.70 842.65
  L 632.77 845.80
  L 628.71 848.27
  L 619.97 854.22
  L 608.97 861.66
  L 600.72 866.81
  L 593.08 871.01
  L 585.98 874.27
  L 581.94 875.70
  L 577.60 876.77
  L 572.98 877.49
  L 568.07 877.86
  L 561.37 877.91
  L 551.59 877.61
  L 540.10 877.27
  L 531.57 877.36
  L 516.90 878.35
  L 497.79 879.44
  L 475.77 879.99
  L 465.97 879.93
  L 456.79 879.53
  L 448.23 878.77
  L 440.29 877.66
  L 434.15 876.42
  L 428.12 874.80
  L 428.12 874.80
  L 428.12 874.80
  L 428.12 874.80
  L 423.88 873.41
  L 419.71 871.81
  L 415.59 870.03
  L 411.53 868.04
  L 401.40 862.59
  L 393.93 858.10
  L 386.27 852.87
  L 379.05 847.93
  L 373.76 844.52
  L 365.01 839.01
  L 360.47 835.84
  L 357.35 833.28
  L 346.43 824.48
  L 338.16 818.39
  L 324.05 808.87
  L 308.88 799.10
  L 300.97 793.83
  L 292.77 787.79
  L 289.05 784.65
  L 285.76 781.29
  L 282.90 777.71
  L 280.47 773.91
  Z
  M 512.73 377.11
  L 678.64 377.18
  L 678.68 377.18
  L 679.19 376.92
  L 679.36 376.37
  L 678.36 369.27
  L 676.89 362.44
  L 674.97 355.88
  L 672.58 349.58
  L 670.02 343.84
  L 667.27 338.25
  L 664.34 332.83
  L 661.23 327.57
  L 657.93 322.47
  L 654.45 317.52
  L 650.78 312.74
  L 646.93 308.11
  L 646.93 308.11
  L 646.93 308.11
  L 646.93 308.11
  L 641.44 302.13
  L 635.61 296.43
  L 629.46 291.01
  L 623.06 285.91
  L 616.36 281.08
  L 609.44 276.59
  L 602.28 272.42
  L 594.93 268.59
  L 587.32 265.07
  L 579.54 261.91
  L 571.55 259.08
  L 563.42 256.63
  L 555.18 254.55
  L 546.83 252.84
  L 538.40 251.50
  L 529.89 250.55
  L 521.34 249.97
  L 512.74 249.78
  L 504.14 249.97
  L 495.59 250.54
  L 487.08 251.50
  L 478.65 252.83
  L 470.30 254.54
  L 462.06 256.62
  L 453.93 259.07
  L 445.94 261.90
  L 438.16 265.06
  L 430.54 268.57
  L 423.20 272.40
  L 416.04 276.57
  L 409.11 281.06
  L 402.41 285.89
  L 396.01 290.98
  L 389.86 296.41
  L 384.03 302.10
  L 378.54 308.09
  L 378.54 308.09
  L 374.69 312.71
  L 371.02 317.50
  L 367.53 322.44
  L 364.24 327.54
  L 361.12 332.80
  L 358.19 338.23
  L 355.44 343.81
  L 352.88 349.55
  L 350.49 355.85
  L 348.57 362.41
  L 347.10 369.24
  L 346.10 376.34
  L 346.26 376.89
  L 346.77 377.15
  L 346.81 377.15
  L 512.73 377.11
  Z
  M 513.06 445.96
  L 516.66 445.82
  L 520.21 445.38
  L 520.21 445.38
  L 524.25 444.53
  L 528.21 443.29
  L 532.12 441.67
  L 535.96 439.67
  L 539.91 437.31
  L 546.19 433.67
  L 550.68 431.74
  L 555.64 430.51
  L 560.61 430.06
  L 564.52 430.25
  L 568.44 430.93
  L 571.62 431.89
  L 574.95 433.32
  L 578.55 435.25
  L 583.60 438.31
  L 584.31 438.75
  L 589.43 441.57
  L 594.60 443.71
  L 599.83 445.17
  L 605.12 445.96
  L 605.12 445.96
  L 605.12 445.96
  L 605.12 445.96
  L 605.12 445.96
  L 609.46 446.10
  L 613.84 445.79
  L 618.25 445.03
  L 622.71 443.83
  L 625.50 442.80
  L 628.46 441.43
  L 636.08 437.12
  L 641.96 433.73
  L 645.64 432.03
  L 649.31 430.83
  L 652.98 430.12
  L 656.64 429.92
  L 656.64 429.92
  L 661.19 430.36
  L 665.73 431.58
  L 669.66 433.32
  L 674.68 436.29
  L 678.64 438.67
  L 681.69 440.15
  L 684.52 441.07
  L 687.32 441.48
  L 689.80 441.40
  L 692.24 440.95
  L 693.92 440.36
  L 695.53 439.51
  L 697.01 438.41
  L 698.34 437.10
  L 699.46 435.62
  L 700.36 434.00
  L 700.97 432.36
  L 701.30 430.65
  L 701.34 428.11
  L 700.88 425.72
  L 700.88 425.72
  L 700.88 425.72
  L 700.12 423.87
  L 699.03 422.12
  L 697.60 420.48
  L 695.83 418.94
  L 690.01 414.93
  L 682.21 410.32
  L 677.57 407.98
  L 672.81 406.09
  L 668.07 404.68
  L 663.27 403.74
  L 658.54 403.28
  L 653.82 403.29
  L 649.21 403.79
  L 644.65 404.77
  L 640.69 406.05
  L 636.80 407.73
  L 633.43 409.59
  L 628.44 412.73
  L 622.10 416.63
  L 618.87 418.05
  L 615.38 419.01
  L 611.60 419.49
  L 607.56 419.51
  L 603.23 419.04
  L 599.26 418.09
  L 595.65 416.67
  L 592.40 414.77
  L 585.17 410.01
  L 582.33 408.39
  L 580.02 407.28
  L 574.66 405.35
  L 569.33 404.04
  L 564.02 403.36
  L 558.75 403.30
  L 558.75 403.30
  L 558.75 403.30
  L 558.75 403.30
  L 554.78 403.67
  L 550.83 404.40
  L 546.90 405.48
  L 542.98 406.92
  L 537.79 409.47
  L 530.71 413.81
  L 527.45 415.88
  L 526.39 416.50
  L 523.47 417.85
  L 520.23 418.82
  L 516.80 419.38
  L 513.06 419.57
  L 509.31 419.38
  L 505.88 418.82
  L 502.64 417.85
  L 499.72 416.50
  L 498.66 415.88
  L 495.40 413.81
  L 488.32 409.47
  L 483.13 406.92
  L 479.22 405.48
  L 475.28 404.39
  L 471.33 403.67
  L 467.36 403.30
  L 467.36 403.30
  L 467.36 403.30
  L 462.09 403.36
  L 456.79 404.04
  L 451.46 405.35
  L 446.09 407.28
  L 443.78 408.39
  L 440.95 410.01
  L 433.71 414.77
  L 430.46 416.67
  L 426.85 418.09
  L 422.88 419.04
  L 418.55 419.51
  L 414.51 419.49
  L 410.74 419.00
  L 407.24 418.05
  L 404.01 416.63
  L 397.67 412.73
  L 392.69 409.59
  L 389.31 407.73
  L 385.42 406.05
  L 381.46 404.77
  L 376.90 403.78
  L 372.29 403.29
  L 367.57 403.28
  L 362.85 403.74
  L 358.04 404.68
  L 353.30 406.09
  L 348.54 407.98
  L 343.90 410.32
  L 336.11 414.92
  L 330.28 418.94
  L 328.51 420.48
  L 327.08 422.12
  L 325.99 423.87
  L 325.24 425.72
  L 325.24 425.72
  L 325.24 425.72
  L 324.78 428.11
  L 324.81 430.65
  L 325.15 432.36
  L 325.75 434.00
  L 326.65 435.62
  L 327.78 437.10
  L 329.10 438.41
  L 330.59 439.50
  L 332.19 440.36
  L 333.87 440.95
  L 336.32 441.40
  L 338.79 441.47
  L 341.59 441.07
  L 344.42 440.15
  L 347.47 438.67
  L 351.43 436.28
  L 356.46 433.32
  L 360.38 431.58
  L 364.92 430.36
  L 369.47 429.92
  L 373.13 430.12
  L 376.80 430.83
  L 380.47 432.03
  L 384.15 433.73
  L 390.04 437.12
  L 397.65 441.43
  L 400.62 442.80
  L 403.40 443.83
  L 407.86 445.03
  L 412.28 445.79
  L 416.66 446.10
  L 421.00 445.96
  L 421.00 445.96
  L 426.28 445.17
  L 431.51 443.71
  L 436.69 441.57
  L 441.80 438.75
  L 442.52 438.31
  L 447.56 435.25
  L 451.16 433.32
  L 454.49 431.89
  L 457.67 430.93
  L 461.59 430.25
  L 465.51 430.06
  L 465.51 430.06
  L 465.51 430.06
  L 470.47 430.51
  L 475.43 431.74
  L 479.92 433.67
  L 486.20 437.31
  L 490.15 439.67
  L 493.99 441.67
  L 497.90 443.29
  L 501.87 444.53
  L 505.90 445.38
  L 505.90 445.38
  L 509.45 445.82
  L 513.06 445.96
  Z
  M 513.24 498.19
  L 518.00 497.94
  L 522.66 497.20
  L 522.66 497.20
  L 522.66 497.20
  L 526.99 496.04
  L 531.22 494.43
  L 535.36 492.37
  L 539.39 489.87
  L 546.01 485.71
  L 552.01 482.69
  L 554.26 481.83
  L 556.44 481.21
  L 558.66 480.81
  L 560.83 480.64
  L 563.32 480.72
  L 565.75 481.08
  L 568.21 481.70
  L 570.84 482.63
  L 576.41 485.34
  L 584.11 490.04
  L 585.20 490.74
  L 590.61 493.77
  L 596.06 496.03
  L 601.55 497.52
  L 607.09 498.23
  L 607.09 498.23
  L 612.49 498.19
  L 617.93 497.43
  L 623.41 495.94
  L 628.93 493.74
  L 631.68 492.31
  L 635.16 490.23
  L 636.25 489.55
  L 643.60 485.14
  L 649.07 482.56
  L 651.68 481.67
  L 654.15 481.07
  L 656.60 480.73
  L 659.11 480.65
  L 662.69 481.01
  L 666.24 481.93
  L 671.21 483.93
  L 675.60 486.43
  L 682.37 490.64
  L 688.81 493.96
  L 692.92 495.63
  L 697.06 496.88
  L 701.21 497.72
  L 705.39 498.13
  L 705.39 498.13
  L 705.39 498.13
  L 709.06 498.14
  L 712.74 497.84
  L 716.44 497.21
  L 720.16 496.26
  L 723.42 495.09
  L 727.35 493.32
  L 731.96 490.96
  L 737.25 487.99
  L 753.81 478.62
  L 755.56 477.52
  L 757.08 476.28
  L 758.39 474.90
  L 759.47 473.39
  L 759.47 473.39
  L 759.47 473.39
  L 760.60 471.05
  L 761.12 469.12
  L 761.27 467.15
  L 761.08 465.09
  L 760.52 463.09
  L 759.63 461.20
  L 758.43 459.49
  L 757.00 458.08
  L 755.31 456.92
  L 752.98 455.85
  L 750.67 455.22
  L 748.36 454.99
  L 746.07 455.12
  L 743.72 455.58
  L 741.20 456.41
  L 738.64 457.56
  L 735.93 459.05
  L 729.03 463.65
  L 724.66 466.65
  L 720.60 468.86
  L 718.05 469.87
  L 715.39 470.65
  L 712.63 471.21
  L 709.77 471.54
  L 706.91 471.65
  L 704.16 471.56
  L 701.51 471.25
  L 698.93 470.73
  L 696.24 469.94
  L 693.61 468.90
  L 690.93 467.57
  L 688.27 465.98
  L 686.04 464.53
  L 679.96 460.68
  L 675.60 458.43
  L 672.66 457.28
  L 669.67 456.34
  L 666.66 455.62
  L 663.63 455.12
  L 660.58 454.83
  L 657.54 454.76
  L 654.50 454.92
  L 651.48 455.29
  L 647.31 456.18
  L 643.21 457.51
  L 639.30 459.22
  L 635.51 461.36
  L 630.18 464.83
  L 625.79 467.58
  L 621.82 469.42
  L 618.41 470.51
  L 615.01 471.24
  L 611.62 471.63
  L 608.25 471.66
  L 608.25 471.66
  L 608.25 471.66
  L 605.45 471.41
  L 602.65 470.92
  L 599.86 470.18
  L 597.09 469.20
  L 593.37 467.32
  L 588.02 463.86
  L 583.51 460.91
  L 580.41 459.20
  L 575.61 457.21
  L 570.82 455.80
  L 566.03 454.96
  L 561.24 454.70
  L 561.24 454.70
  L 561.24 454.70
  L 556.68 454.99
  L 552.12 455.81
  L 547.57 457.15
  L 543.02 459.01
  L 537.81 461.96
  L 530.08 467.12
  L 526.69 469.00
  L 522.58 470.42
  L 518.07 471.29
  L 513.23 471.59
  L 508.40 471.29
  L 503.89 470.42
  L 499.78 469.00
  L 496.39 467.12
  L 488.65 461.96
  L 483.45 459.01
  L 478.90 457.15
  L 474.35 455.81
  L 469.79 455.00
  L 465.23 454.71
  L 465.23 454.71
  L 465.23 454.71
  L 460.44 454.96
  L 455.65 455.80
  L 450.86 457.21
  L 446.06 459.20
  L 442.95 460.91
  L 438.45 463.87
  L 433.10 467.33
  L 429.38 469.21
  L 426.60 470.19
  L 423.82 470.93
  L 421.02 471.42
  L 418.22 471.66
  L 418.22 471.66
  L 418.22 471.66
  L 418.22 471.66
  L 414.85 471.63
  L 411.46 471.25
  L 408.06 470.51
  L 404.65 469.43
  L 400.68 467.58
  L 396.29 464.84
  L 390.96 461.37
  L 387.16 459.23
  L 383.26 457.52
  L 379.16 456.19
  L 374.99 455.30
  L 371.97 454.93
  L 368.93 454.77
  L 365.88 454.84
  L 362.84 455.13
  L 359.81 455.63
  L 356.80 456.35
  L 353.81 457.29
  L 350.87 458.44
  L 346.51 460.69
  L 340.42 464.54
  L 338.20 465.99
  L 335.54 467.58
  L 332.86 468.91
  L 330.23 469.95
  L 327.54 470.74
  L 324.96 471.26
  L 322.31 471.57
  L 319.56 471.67
  L 316.70 471.55
  L 313.84 471.22
  L 311.08 470.67
  L 308.42 469.88
  L 305.87 468.87
  L 305.87 468.87
  L 301.81 466.66
  L 297.44 463.67
  L 290.54 459.06
  L 287.83 457.57
  L 285.27 456.43
  L 282.75 455.60
  L 280.39 455.13
  L 278.11 455.01
  L 275.80 455.24
  L 273.49 455.86
  L 271.16 456.93
  L 269.47 458.09
  L 268.04 459.51
  L 266.84 461.22
  L 265.95 463.10
  L 265.39 465.10
  L 265.19 467.17
  L 265.35 469.14
  L 265.87 471.07
  L 267.00 473.41
  L 268.08 474.92
  L 269.39 476.29
  L 270.91 477.53
  L 272.66 478.63
  L 289.22 488.00
  L 294.51 490.97
  L 299.12 493.34
  L 303.05 495.10
  L 306.31 496.27
  L 310.03 497.22
  L 313.73 497.85
  L 317.42 498.16
  L 321.09 498.14
  L 321.09 498.14
  L 321.09 498.14
  L 325.26 497.73
  L 329.41 496.90
  L 333.55 495.64
  L 337.66 493.97
  L 344.10 490.65
  L 350.87 486.44
  L 355.26 483.94
  L 360.23 481.94
  L 363.78 481.02
  L 367.36 480.66
  L 369.88 480.74
  L 372.32 481.08
  L 374.79 481.68
  L 377.40 482.57
  L 382.87 485.15
  L 390.23 489.56
  L 391.31 490.24
  L 394.79 492.31
  L 397.54 493.75
  L 403.06 495.95
  L 408.54 497.43
  L 413.98 498.20
  L 419.38 498.24
  L 419.38 498.24
  L 419.38 498.24
  L 424.92 497.52
  L 430.42 496.04
  L 435.87 493.78
  L 441.27 490.74
  L 442.37 490.05
  L 450.06 485.34
  L 455.63 482.63
  L 458.26 481.70
  L 460.72 481.08
  L 463.15 480.73
  L 465.64 480.65
  L 467.81 480.81
  L 470.03 481.21
  L 472.21 481.83
  L 474.46 482.69
  L 480.46 485.71
  L 487.08 489.87
  L 491.12 492.37
  L 495.25 494.43
  L 499.48 496.04
  L 503.81 497.20
  L 503.81 497.20
  L 503.81 497.20
  L 503.81 497.20
  L 508.47 497.94
  L 513.24 498.19
  Z
  M 677.10 525.39
  L 676.81 522.48
  L 675.97 519.69
  L 674.59 517.11
  L 672.74 514.85
  L 670.48 513.00
  L 667.90 511.62
  L 665.11 510.78
  L 662.20 510.49
  L 364.06 510.49
  L 361.15 510.78
  L 358.36 511.62
  L 355.78 513.00
  L 353.52 514.85
  L 351.67 517.11
  L 350.29 519.69
  L 349.45 522.48
  L 349.16 525.39
  L 349.16 525.69
  L 349.45 528.60
  L 350.29 531.39
  L 351.67 533.97
  L 353.52 536.23
  L 355.78 538.08
  L 358.36 539.46
  L 361.15 540.30
  L 364.06 540.59
  L 662.20 540.59
  L 665.11 540.30
  L 667.90 539.46
  L 670.48 538.08
  L 672.74 536.23
  L 674.59 533.97
  L 675.97 531.39
  L 676.81 528.60
  L 677.10 525.69
  L 677.10 525.39
  Z
  M 676.43 560.22
  L 349.03 560.22
  L 348.46 560.33
  L 347.98 560.65
  L 347.66 561.13
  L 347.55 561.70
  L 347.55 591.47
  L 347.71 594.75
  L 348.21 598.01
  L 349.02 601.20
  L 350.15 604.29
  L 351.59 607.27
  L 353.32 610.09
  L 355.32 612.73
  L 357.57 615.17
  L 360.06 617.37
  L 362.75 619.33
  L 365.63 621.02
  L 368.67 622.43
  L 371.83 623.54
  L 375.09 624.34
  L 378.41 624.82
  L 381.76 624.98
  L 643.70 624.98
  L 647.05 624.82
  L 650.37 624.34
  L 653.63 623.54
  L 656.79 622.43
  L 659.83 621.02
  L 662.71 619.33
  L 665.40 617.37
  L 667.89 615.17
  L 670.14 612.73
  L 672.14 610.09
  L 673.87 607.27
  L 675.31 604.29
  L 676.44 601.20
  L 677.25 598.01
  L 677.75 594.75
  L 677.91 591.47
  L 677.91 591.47
  L 677.91 561.70
  L 677.80 561.13
  L 677.48 560.65
  L 677.00 560.33
  L 676.43 560.22
  Z
  M 491.1833 736.4658
  L 491.5731 731.9455
  L 491.5088 727.4071
  L 490.9910 722.8942
  L 490.0247 718.4504
  L 488.6192 714.1183
  L 486.7880 709.9398
  L 484.5488 705.9551
  L 481.9231 702.2025
  L 478.9363 698.7181
  L 475.6170 695.5357
  L 471.9974 692.6857
  L 468.1121 690.1956
  L 463.9986 688.0895
  L 459.6966 686.3875
  L 455.2475 685.1062
  L 450.6941 684.2577
  L 446.0803 683.8504
  L 441.4505 683.8881
  L 436.8493 684.3705
  L 432.3210 685.2928
  L 427.9092 686.6463
  L 423.6565 688.4179
  L 419.6036 690.5906
  L 415.7898 693.1433
  L 412.2517 696.0516
  L 409.0235 699.2874
  L 406.1361 702.8196
  L 403.6174 706.6141
  L 401.4916 710.6344
  L 399.7793 714.8417
  L 398.4969 719.1957
  L 397.6567 723.6542
  L 397.6567 723.6542
  L 397.2669 728.1745
  L 397.3312 732.7129
  L 397.8490 737.2258
  L 398.8153 741.6696
  L 400.2208 746.0017
  L 402.0520 750.1802
  L 404.2912 754.1649
  L 406.9169 757.9175
  L 409.9037 761.4019
  L 413.2230 764.5843
  L 416.8426 767.4343
  L 420.7279 769.9244
  L 424.8414 772.0305
  L 429.1434 773.7325
  L 433.5925 775.0138
  L 438.1459 775.8623
  L 442.7597 776.2696
  L 447.3895 776.2319
  L 451.9907 775.7495
  L 456.5190 774.8272
  L 460.9308 773.4737
  L 465.1835 771.7021
  L 469.2364 769.5294
  L 473.0502 766.9767
  L 476.5883 764.0684
  L 479.8165 760.8326
  L 482.7039 757.3004
  L 485.2226 753.5059
  L 487.3484 749.4856
  L 489.0607 745.2783
  L 490.3431 740.9243
  L 491.1833 736.4658
  Z
  M 530.90 709.44
  L 531.50 707.72
  L 532.45 706.30
  L 532.45 706.30
  L 533.30 705.51
  L 534.30 704.87
  L 536.80 704.02
  L 539.08 703.68
  L 541.57 703.60
  L 544.02 703.80
  L 546.54 704.29
  L 549.00 705.05
  L 551.55 706.12
  L 554.03 707.44
  L 556.53 709.07
  L 558.93 710.90
  L 559.68 711.13
  L 560.38 710.78
  L 572.47 696.80
  L 572.49 696.78
  L 572.65 696.20
  L 572.34 695.68
  L 567.94 692.71
  L 563.60 690.17
  L 559.36 688.07
  L 555.19 686.40
  L 551.01 685.13
  L 546.91 684.29
  L 542.74 683.85
  L 538.67 683.84
  L 538.05 683.87
  L 534.03 684.32
  L 530.20 685.15
  L 526.59 686.35
  L 523.23 687.92
  L 520.15 689.83
  L 517.38 692.09
  L 515.02 694.59
  L 513.01 697.40
  L 511.08 701.20
  L 509.77 705.41
  L 509.13 709.95
  L 509.17 714.64
  L 509.43 716.65
  L 509.87 718.58
  L 510.84 721.23
  L 512.15 723.69
  L 513.85 726.06
  L 515.84 728.21
  L 518.25 730.26
  L 520.89 732.05
  L 523.83 733.63
  L 526.91 734.91
  L 545.15 741.11
  L 548.32 742.47
  L 550.97 744.28
  L 551.96 745.27
  L 552.67 746.27
  L 553.14 747.36
  L 553.33 748.43
  L 553.23 749.62
  L 552.84 750.75
  L 552.13 751.89
  L 551.19 752.92
  L 550.00 753.86
  L 548.65 754.63
  L 547.21 755.19
  L 545.73 755.52
  L 543.02 755.78
  L 540.37 755.81
  L 537.77 755.59
  L 535.23 755.13
  L 535.23 755.13
  L 532.31 754.28
  L 529.47 753.09
  L 526.70 751.57
  L 524.01 749.71
  L 519.07 745.68
  L 518.72 745.54
  L 518.38 745.72
  L 505.16 759.73
  L 504.97 760.21
  L 505.17 760.68
  L 508.95 764.16
  L 512.92 767.20
  L 517.09 769.79
  L 521.44 771.95
  L 521.44 771.95
  L 521.44 771.95
  L 521.44 771.95
  L 525.33 773.45
  L 529.36 774.62
  L 533.53 775.47
  L 537.84 776.00
  L 541.34 776.16
  L 544.81 776.04
  L 548.24 775.64
  L 551.60 774.97
  L 554.82 774.04
  L 557.93 772.84
  L 560.81 771.41
  L 563.53 769.72
  L 566.19 767.68
  L 568.53 765.46
  L 570.53 763.05
  L 572.20 760.46
  L 572.20 760.46
  L 572.20 760.46
  L 573.78 757.11
  L 574.87 753.49
  L 575.49 749.60
  L 575.64 745.45
  L 575.16 741.20
  L 574.63 739.17
  L 573.91 737.25
  L 572.62 734.78
  L 571.03 732.52
  L 569.13 730.44
  L 566.83 728.44
  L 564.27 726.65
  L 561.33 724.98
  L 558.03 723.46
  L 554.42 722.10
  L 538.29 716.41
  L 535.13 714.97
  L 532.71 713.35
  L 531.30 711.74
  L 530.95 710.94
  L 530.82 710.09
  L 530.90 709.44
  Z
  M 777.4933 725.5576
  L 776.8324 721.0601
  L 775.7267 716.6493
  L 774.1866 712.3678
  L 772.2270 708.2568
  L 769.8669 704.3558
  L 767.1289 700.7025
  L 764.0393 697.3320
  L 760.6281 694.2768
  L 756.9279 691.5664
  L 752.9745 689.2267
  L 748.8058 687.2803
  L 744.4622 685.7461
  L 739.9853 684.6387
  L 735.4183 683.9688
  L 730.8052 683.7430
  L 726.1904 683.9632
  L 721.6184 684.6276
  L 717.1332 685.7295
  L 712.7779 687.2585
  L 708.5946 689.1997
  L 704.6235 691.5346
  L 700.9028 694.2406
  L 697.4684 697.2916
  L 694.3534 700.6584
  L 691.5878 704.3083
  L 689.1981 708.2064
  L 687.2075 712.3150
  L 685.6350 716.5946
  L 684.4959 721.0040
  L 683.8011 725.5007
  L 683.5573 730.0414
  L 683.7667 734.5824
  L 683.7667 734.5824
  L 684.4276 739.0799
  L 685.5333 743.4907
  L 687.0734 747.7722
  L 689.0330 751.8832
  L 691.3931 755.7842
  L 694.1311 759.4375
  L 697.2207 762.8080
  L 700.6319 765.8632
  L 704.3321 768.5736
  L 708.2855 770.9133
  L 712.4542 772.8597
  L 716.7978 774.3939
  L 721.2747 775.5013
  L 725.8417 776.1712
  L 730.4548 776.3970
  L 735.0696 776.1768
  L 739.6416 775.5124
  L 744.1268 774.4105
  L 748.4821 772.8815
  L 752.6654 770.9403
  L 756.6365 768.6054
  L 760.3572 765.8994
  L 763.7916 762.8484
  L 766.9066 759.4816
  L 769.6722 755.8317
  L 772.0619 751.9336
  L 774.0525 747.8250
  L 775.6250 743.5454
  L 776.7641 739.1360
  L 777.4589 734.6393
  L 777.7027 730.0986
  L 777.4933 725.5576
  Z
  M 377.57 686.22
  L 377.30 685.95
  L 356.22 685.95
  L 355.95 686.22
  L 355.95 773.80
  L 356.22 774.07
  L 377.30 774.07
  L 377.57 773.80
  L 377.57 686.22
  Z
  M 616.10 720.96
  L 616.10 686.26
  L 616.00 686.01
  L 615.76 685.91
  L 594.88 685.91
  L 594.47 686.05
  L 594.33 686.46
  L 594.33 773.35
  L 594.58 773.96
  L 595.19 774.21
  L 615.53 774.21
  L 615.84 773.90
  L 615.84 751.46
  L 615.99 750.71
  L 616.40 750.06
  L 625.32 740.62
  L 625.82 740.36
  L 626.29 740.69
  L 649.13 773.30
  L 649.85 773.93
  L 650.78 774.16
  L 675.49 774.16
  L 675.62 774.14
  L 675.89 773.87
  L 675.83 773.49
  L 640.48 724.83
  L 640.51 724.44
  L 676.04 686.80
  L 676.14 686.64
  L 676.08 686.20
  L 675.68 685.99
  L 651.53 685.93
  L 648.97 686.10
  L 647.99 686.50
  L 646.93 687.43
  L 616.44 721.09
  L 616.19 721.25
  L 616.10 720.96
  Z"
/>
<path fill="#c07e37" d="
  M 512.74 249.78
  L 521.34 249.97
  L 529.89 250.55
  L 538.40 251.50
  L 546.83 252.84
  L 555.18 254.55
  L 563.42 256.63
  L 571.55 259.08
  L 579.54 261.91
  L 587.32 265.07
  L 594.93 268.59
  L 602.28 272.42
  L 609.44 276.59
  L 616.36 281.08
  L 623.06 285.91
  L 629.46 291.01
  L 635.61 296.43
  L 641.44 302.13
  L 646.93 308.11
  L 646.93 308.11
  L 646.93 308.11
  L 650.78 312.74
  L 654.45 317.52
  L 657.93 322.47
  L 661.23 327.57
  L 664.34 332.83
  L 667.27 338.25
  L 670.02 343.84
  L 672.58 349.58
  L 674.97 355.88
  L 676.89 362.44
  L 678.36 369.27
  L 679.36 376.37
  L 679.19 376.92
  L 678.68 377.18
  L 678.64 377.18
  L 512.73 377.11
  L 346.81 377.15
  L 346.77 377.15
  L 346.26 376.89
  L 346.10 376.34
  L 347.10 369.24
  L 348.57 362.41
  L 350.49 355.85
  L 352.88 349.55
  L 355.44 343.81
  L 358.19 338.23
  L 361.12 332.80
  L 364.24 327.54
  L 367.53 322.44
  L 371.02 317.50
  L 374.69 312.71
  L 378.54 308.09
  L 378.54 308.09
  L 378.54 308.09
  L 384.03 302.10
  L 389.86 296.41
  L 396.01 290.98
  L 402.41 285.89
  L 409.11 281.06
  L 416.04 276.57
  L 423.20 272.40
  L 430.54 268.57
  L 438.16 265.06
  L 445.94 261.90
  L 453.93 259.07
  L 462.06 256.62
  L 470.30 254.54
  L 478.65 252.83
  L 487.08 251.50
  L 495.59 250.54
  L 504.14 249.97
  L 512.74 249.78
  Z
  M 525.8793 277.1841
  L 525.6192 276.1664
  L 524.8703 275.1931
  L 523.6615 274.3015
  L 522.0390 273.5259
  L 520.0654 272.8961
  L 517.8164 272.4364
  L 515.3784 272.1643
  L 512.8452 272.0903
  L 510.3142 272.2173
  L 507.8824 272.5404
  L 505.6436 273.0472
  L 503.6835 273.7181
  L 502.0777 274.5275
  L 500.8877 275.4443
  L 500.1594 276.4330
  L 499.9207 277.4559
  L 500.1808 278.4736
  L 500.9297 279.4469
  L 502.1385 280.3385
  L 503.7610 281.1141
  L 505.7346 281.7439
  L 507.9836 282.2036
  L 510.4216 282.4757
  L 512.9548 282.5497
  L 515.4858 282.4227
  L 517.9176 282.0996
  L 520.1564 281.5928
  L 522.1165 280.9219
  L 523.7223 280.1125
  L 524.9123 279.1957
  L 525.6406 278.2070
  L 525.8793 277.1841
  Z
  M 464.2093 287.7950
  L 463.9721 286.7936
  L 463.2487 285.8255
  L 462.0668 284.9279
  L 460.4720 284.1353
  L 458.5255 283.4781
  L 456.3021 282.9817
  L 451.3736 282.5403
  L 446.4370 282.8783
  L 444.2037 283.3281
  L 442.2438 283.9444
  L 440.6327 284.7034
  L 439.4324 285.5761
  L 438.6888 286.5288
  L 438.4307 287.5250
  L 438.6679 288.5264
  L 439.3913 289.4945
  L 440.5732 290.3921
  L 442.1680 291.1847
  L 444.1145 291.8419
  L 446.3379 292.3383
  L 451.2664 292.7797
  L 456.2030 292.4417
  L 458.4363 291.9919
  L 460.3962 291.3756
  L 462.0073 290.6166
  L 463.2076 289.7439
  L 463.9512 288.7912
  L 464.2093 287.7950
  Z
  M 587.5500 287.6323
  L 587.3064 286.6271
  L 586.5814 285.6598
  L 585.4028 284.7673
  L 583.8161 283.9842
  L 581.8821 283.3403
  L 579.6752 282.8606
  L 577.2801 282.5633
  L 574.7890 282.4600
  L 572.2975 282.5546
  L 569.9014 282.8435
  L 567.6929 283.3156
  L 565.7566 283.9526
  L 564.1671 284.7303
  L 562.9855 285.6186
  L 562.2571 286.5834
  L 562.0100 287.5877
  L 562.2536 288.5929
  L 562.9786 289.5602
  L 564.1572 290.4527
  L 565.7439 291.2358
  L 567.6779 291.8797
  L 569.8848 292.3594
  L 572.2799 292.6567
  L 574.7710 292.7600
  L 577.2625 292.6654
  L 579.6586 292.3765
  L 581.8671 291.9044
  L 583.8034 291.2674
  L 585.3929 290.4897
  L 586.5745 289.6014
  L 587.3029 288.6366
  L 587.5500 287.6323
  Z
  M 529.9786 326.3196
  L 531.0708 326.8471
  L 532.3560 327.0239
  L 533.7846 326.8431
  L 535.3018 326.3118
  L 536.8493 325.4502
  L 538.3676 324.2916
  L 539.7984 322.8805
  L 541.0867 321.2710
  L 542.1830 319.5251
  L 543.0451 317.7098
  L 543.6400 315.8949
  L 543.9446 314.1501
  L 543.9475 312.5425
  L 543.6484 311.1339
  L 543.0588 309.9784
  L 542.2014 309.1204
  L 541.1092 308.5929
  L 539.8240 308.4161
  L 538.3954 308.5969
  L 536.8782 309.1282
  L 535.3307 309.9898
  L 533.8124 311.1484
  L 532.3816 312.5595
  L 531.0933 314.1690
  L 529.9970 315.9149
  L 529.1349 317.7302
  L 528.5400 319.5451
  L 528.2354 321.2899
  L 528.2325 322.8975
  L 528.5316 324.3061
  L 529.1212 325.4616
  L 529.9786 326.3196
  Z
  M 495.4396 326.0876
  L 496.2945 325.2313
  L 496.8871 324.0886
  L 497.1947 322.7034
  L 497.2054 321.1291
  L 496.9189 319.4261
  L 496.3461 317.6598
  L 495.5091 315.8981
  L 494.4400 314.2087
  L 493.1798 312.6566
  L 491.7772 311.3014
  L 490.2858 310.1951
  L 488.7631 309.3804
  L 487.2676 308.8884
  L 485.8567 308.7381
  L 484.5847 308.9353
  L 483.5004 309.4724
  L 482.6455 310.3287
  L 482.0529 311.4714
  L 481.7453 312.8566
  L 481.7346 314.4309
  L 482.0211 316.1339
  L 482.5939 317.9002
  L 483.4309 319.6619
  L 484.5000 321.3513
  L 485.7602 322.9034
  L 487.1628 324.2586
  L 488.6542 325.3649
  L 490.1769 326.1796
  L 491.6724 326.6716
  L 493.0833 326.8219
  L 494.3553 326.6247
  L 495.4396 326.0876
  Z
  M 618.8999 315.6145
  L 618.6587 314.5972
  L 617.9371 313.6173
  L 616.7630 312.7125
  L 615.1813 311.9174
  L 613.2530 311.2628
  L 611.0522 310.7736
  L 608.6633 310.4688
  L 606.1782 310.3600
  L 603.6924 310.4515
  L 601.3014 310.7396
  L 599.0972 311.2134
  L 597.1644 311.8546
  L 595.5772 312.6385
  L 594.3968 313.5351
  L 593.6684 314.5100
  L 593.4201 315.5255
  L 593.6613 316.5428
  L 594.3829 317.5227
  L 595.5570 318.4275
  L 597.1387 319.2226
  L 599.0670 319.8772
  L 601.2678 320.3664
  L 603.6567 320.6712
  L 606.1418 320.7800
  L 608.6276 320.6885
  L 611.0186 320.4004
  L 613.2228 319.9266
  L 615.1556 319.2854
  L 616.7428 318.5015
  L 617.9232 317.6049
  L 618.6516 316.6300
  L 618.8999 315.6145
  Z
  M 433.1098 315.6270
  L 432.8692 314.6113
  L 432.1459 313.6320
  L 430.9678 312.7268
  L 429.3801 311.9305
  L 427.4438 311.2737
  L 425.2334 310.7815
  L 422.8338 310.4731
  L 420.3372 310.3601
  L 417.8396 310.4469
  L 415.4369 310.7302
  L 413.2214 311.1992
  L 411.2784 311.8357
  L 409.6825 312.6153
  L 408.4949 313.5082
  L 407.7614 314.4798
  L 407.5102 315.4930
  L 407.7508 316.5087
  L 408.4741 317.4880
  L 409.6522 318.3932
  L 411.2399 319.1895
  L 413.1762 319.8463
  L 415.3866 320.3385
  L 417.7862 320.6469
  L 420.2828 320.7599
  L 422.7804 320.6731
  L 425.1831 320.3898
  L 427.3986 319.9208
  L 429.3416 319.2843
  L 430.9375 318.5047
  L 432.1251 317.6118
  L 432.8586 316.6402
  L 433.1098 315.6270
  Z
  M 464.3700 344.1327
  L 464.1216 343.1003
  L 463.3824 342.1066
  L 462.1808 341.1899
  L 460.5630 340.3855
  L 458.5912 339.7242
  L 456.3411 339.2314
  L 453.8991 338.9261
  L 451.3592 338.8200
  L 448.8190 338.9172
  L 446.3760 339.2140
  L 444.1242 339.6989
  L 442.1500 340.3533
  L 440.5294 341.1521
  L 439.3246 342.0646
  L 438.5820 343.0557
  L 438.3300 344.0873
  L 438.5784 345.1197
  L 439.3176 346.1134
  L 440.5192 347.0301
  L 442.1370 347.8345
  L 444.1088 348.4958
  L 446.3589 348.9886
  L 448.8009 349.2939
  L 451.3408 349.4000
  L 453.8810 349.3028
  L 456.3240 349.0060
  L 458.5758 348.5211
  L 460.5500 347.8667
  L 462.1706 347.0679
  L 463.3754 346.1554
  L 464.1180 345.1643
  L 464.3700 344.1327
  Z
  M 588.2200 344.1726
  L 587.9726 343.1324
  L 587.2363 342.1312
  L 586.0393 341.2076
  L 584.4277 340.3971
  L 582.4635 339.7309
  L 580.2220 339.2344
  L 577.7894 338.9268
  L 575.2593 338.8200
  L 572.7288 338.9180
  L 570.2952 339.2171
  L 568.0520 339.7057
  L 566.0854 340.3651
  L 564.4710 341.1700
  L 563.2709 342.0894
  L 562.5310 343.0880
  L 562.2800 344.1274
  L 562.5274 345.1676
  L 563.2637 346.1688
  L 564.4607 347.0924
  L 566.0723 347.9029
  L 568.0365 348.5691
  L 570.2780 349.0656
  L 572.7106 349.3732
  L 575.2407 349.4800
  L 577.7712 349.3820
  L 580.2048 349.0829
  L 582.4480 348.5943
  L 584.4146 347.9349
  L 586.0290 347.1300
  L 587.2291 346.2106
  L 587.9690 345.2120
  L 588.2200 344.1726
  Z"
/>
<ellipse fill="#ececef" cx="0.00" cy="0.00" transform="translate(512.90,277.32) rotate(-0.6)" rx="12.98" ry="5.23"/>
<ellipse fill="#ececef" cx="0.00" cy="0.00" transform="translate(451.32,287.66) rotate(0.6)" rx="12.89" ry="5.12"/>
<ellipse fill="#ececef" cx="0.00" cy="0.00" transform="translate(574.78,287.61) rotate(0.1)" rx="12.77" ry="5.15"/>
<ellipse fill="#ececef" cx="0.00" cy="0.00" transform="translate(536.09,317.72) rotate(125.4)" rx="10.55" ry="6.13"/>
<ellipse fill="#ececef" cx="0.00" cy="0.00" transform="translate(489.47,317.78) rotate(54.3)" rx="10.23" ry="6.12"/>
<ellipse fill="#ececef" cx="0.00" cy="0.00" transform="translate(606.16,315.57) rotate(0.2)" rx="12.74" ry="5.21"/>
<ellipse fill="#ececef" cx="0.00" cy="0.00" transform="translate(420.31,315.56) rotate(0.3)" rx="12.80" ry="5.20"/>
<ellipse fill="#ececef" cx="0.00" cy="0.00" transform="translate(451.35,344.11) rotate(0.1)" rx="13.02" ry="5.29"/>
<ellipse fill="#ececef" cx="0.00" cy="0.00" transform="translate(575.25,344.15) rotate(0.1)" rx="12.97" ry="5.33"/>
<path fill="#c07e37" d="
  M 513.06 419.57
  L 516.80 419.38
  L 520.23 418.82
  L 523.47 417.85
  L 526.39 416.50
  L 527.45 415.88
  L 530.71 413.81
  L 537.79 409.47
  L 542.98 406.92
  L 546.90 405.48
  L 550.83 404.40
  L 554.78 403.67
  L 558.75 403.30
  L 558.75 403.30
  L 558.75 403.30
  L 558.75 403.30
  L 558.75 403.30
  L 564.02 403.36
  L 569.33 404.04
  L 574.66 405.35
  L 580.02 407.28
  L 582.33 408.39
  L 585.17 410.01
  L 592.40 414.77
  L 595.65 416.67
  L 599.26 418.09
  L 603.23 419.04
  L 607.56 419.51
  L 611.60 419.49
  L 615.38 419.01
  L 618.87 418.05
  L 622.10 416.63
  L 628.44 412.73
  L 633.43 409.59
  L 636.80 407.73
  L 640.69 406.05
  L 644.65 404.77
  L 649.21 403.79
  L 653.82 403.29
  L 658.54 403.28
  L 663.27 403.74
  L 668.07 404.68
  L 672.81 406.09
  L 677.57 407.98
  L 682.21 410.32
  L 690.01 414.93
  L 695.83 418.94
  L 697.60 420.48
  L 699.03 422.12
  L 700.12 423.87
  L 700.88 425.72
  L 700.88 425.72
  L 701.34 428.11
  L 701.30 430.65
  L 700.97 432.36
  L 700.36 434.00
  L 699.46 435.62
  L 698.34 437.10
  L 697.01 438.41
  L 695.53 439.51
  L 693.92 440.36
  L 692.24 440.95
  L 689.80 441.40
  L 687.32 441.48
  L 684.52 441.07
  L 681.69 440.15
  L 678.64 438.67
  L 674.68 436.29
  L 669.66 433.32
  L 665.73 431.58
  L 661.19 430.36
  L 656.64 429.92
  L 656.64 429.92
  L 652.98 430.12
  L 649.31 430.83
  L 645.64 432.03
  L 641.96 433.73
  L 636.08 437.12
  L 628.46 441.43
  L 625.50 442.80
  L 622.71 443.83
  L 618.25 445.03
  L 613.84 445.79
  L 609.46 446.10
  L 605.12 445.96
  L 605.12 445.96
  L 599.83 445.17
  L 594.60 443.71
  L 589.43 441.57
  L 584.31 438.75
  L 583.60 438.31
  L 578.55 435.25
  L 574.95 433.32
  L 571.62 431.89
  L 568.44 430.93
  L 564.52 430.25
  L 560.61 430.06
  L 560.61 430.06
  L 555.64 430.51
  L 550.68 431.74
  L 546.19 433.67
  L 539.91 437.31
  L 535.96 439.67
  L 532.12 441.67
  L 528.21 443.29
  L 524.25 444.53
  L 520.21 445.38
  L 520.21 445.38
  L 516.66 445.82
  L 513.06 445.96
  L 509.45 445.82
  L 505.90 445.38
  L 505.90 445.38
  L 501.87 444.53
  L 497.90 443.29
  L 493.99 441.67
  L 490.15 439.67
  L 486.20 437.31
  L 479.92 433.67
  L 475.43 431.74
  L 470.47 430.51
  L 465.51 430.06
  L 465.51 430.06
  L 465.51 430.06
  L 461.59 430.25
  L 457.67 430.93
  L 454.49 431.89
  L 451.16 433.32
  L 447.56 435.25
  L 442.52 438.31
  L 441.80 438.75
  L 436.69 441.57
  L 431.51 443.71
  L 426.28 445.17
  L 421.00 445.96
  L 421.00 445.96
  L 416.66 446.10
  L 412.28 445.79
  L 407.86 445.03
  L 403.40 443.83
  L 400.62 442.80
  L 397.65 441.43
  L 390.04 437.12
  L 384.15 433.73
  L 380.47 432.03
  L 376.80 430.83
  L 373.13 430.12
  L 369.47 429.92
  L 364.92 430.36
  L 360.38 431.58
  L 356.46 433.32
  L 351.43 436.28
  L 347.47 438.67
  L 344.42 440.15
  L 341.59 441.07
  L 338.79 441.47
  L 336.32 441.40
  L 333.87 440.95
  L 332.19 440.36
  L 330.59 439.50
  L 329.10 438.41
  L 327.78 437.10
  L 326.65 435.62
  L 325.75 434.00
  L 325.15 432.36
  L 324.81 430.65
  L 324.78 428.11
  L 325.24 425.72
  L 325.24 425.72
  L 325.24 425.72
  L 325.99 423.87
  L 327.08 422.12
  L 328.51 420.48
  L 330.28 418.94
  L 336.11 414.92
  L 343.90 410.32
  L 348.54 407.98
  L 353.30 406.09
  L 358.04 404.68
  L 362.85 403.74
  L 367.57 403.28
  L 372.29 403.29
  L 376.90 403.78
  L 381.46 404.77
  L 385.42 406.05
  L 389.31 407.73
  L 392.69 409.59
  L 397.67 412.73
  L 404.01 416.63
  L 407.24 418.05
  L 410.74 419.00
  L 414.51 419.49
  L 418.55 419.51
  L 422.88 419.04
  L 426.85 418.09
  L 430.46 416.67
  L 433.71 414.77
  L 440.95 410.01
  L 443.78 408.39
  L 446.09 407.28
  L 451.46 405.35
  L 456.79 404.04
  L 462.09 403.36
  L 467.36 403.30
  L 467.36 403.30
  L 467.36 403.30
  L 471.33 403.67
  L 475.28 404.39
  L 479.22 405.48
  L 483.13 406.92
  L 488.32 409.47
  L 495.40 413.81
  L 498.66 415.88
  L 499.72 416.50
  L 502.64 417.85
  L 505.88 418.82
  L 509.31 419.38
  L 513.06 419.57
  Z"
/>
<path fill="#513118" d="
  M 513.23 471.59
  L 518.07 471.29
  L 522.58 470.42
  L 526.69 469.00
  L 530.08 467.12
  L 537.81 461.96
  L 543.02 459.01
  L 547.57 457.15
  L 552.12 455.81
  L 556.68 454.99
  L 561.24 454.70
  L 561.24 454.70
  L 561.24 454.70
  L 566.03 454.96
  L 570.82 455.80
  L 575.61 457.21
  L 580.41 459.20
  L 583.51 460.91
  L 588.02 463.86
  L 593.37 467.32
  L 597.09 469.20
  L 599.86 470.18
  L 602.65 470.92
  L 605.45 471.41
  L 608.25 471.66
  L 608.25 471.66
  L 608.25 471.66
  L 611.62 471.63
  L 615.01 471.24
  L 618.41 470.51
  L 621.82 469.42
  L 625.79 467.58
  L 630.18 464.83
  L 635.51 461.36
  L 639.30 459.22
  L 643.21 457.51
  L 647.31 456.18
  L 651.48 455.29
  L 654.50 454.92
  L 657.54 454.76
  L 660.58 454.83
  L 663.63 455.12
  L 666.66 455.62
  L 669.67 456.34
  L 672.66 457.28
  L 675.60 458.43
  L 679.96 460.68
  L 686.04 464.53
  L 688.27 465.98
  L 690.93 467.57
  L 693.61 468.90
  L 696.24 469.94
  L 698.93 470.73
  L 701.51 471.25
  L 704.16 471.56
  L 706.91 471.65
  L 709.77 471.54
  L 712.63 471.21
  L 715.39 470.65
  L 718.05 469.87
  L 720.60 468.86
  L 724.66 466.65
  L 729.03 463.65
  L 735.93 459.05
  L 738.64 457.56
  L 741.20 456.41
  L 743.72 455.58
  L 746.07 455.12
  L 748.36 454.99
  L 750.67 455.22
  L 752.98 455.85
  L 755.31 456.92
  L 757.00 458.08
  L 758.43 459.49
  L 759.63 461.20
  L 760.52 463.09
  L 761.08 465.09
  L 761.27 467.15
  L 761.12 469.12
  L 760.60 471.05
  L 759.47 473.39
  L 759.47 473.39
  L 759.47 473.39
  L 758.39 474.90
  L 757.08 476.28
  L 755.56 477.52
  L 753.81 478.62
  L 737.25 487.99
  L 731.96 490.96
  L 727.35 493.32
  L 723.42 495.09
  L 720.16 496.26
  L 716.44 497.21
  L 712.74 497.84
  L 709.06 498.14
  L 705.39 498.13
  L 705.39 498.13
  L 705.39 498.13
  L 705.39 498.13
  L 705.39 498.13
  L 701.21 497.72
  L 697.06 496.88
  L 692.92 495.63
  L 688.81 493.96
  L 682.37 490.64
  L 675.60 486.43
  L 671.21 483.93
  L 666.24 481.93
  L 662.69 481.01
  L 659.11 480.65
  L 656.60 480.73
  L 654.15 481.07
  L 651.68 481.67
  L 649.07 482.56
  L 643.60 485.14
  L 636.25 489.55
  L 635.16 490.23
  L 631.68 492.31
  L 628.93 493.74
  L 623.41 495.94
  L 617.93 497.43
  L 612.49 498.19
  L 607.09 498.23
  L 607.09 498.23
  L 607.09 498.23
  L 601.55 497.52
  L 596.06 496.03
  L 590.61 493.77
  L 585.20 490.74
  L 584.11 490.04
  L 576.41 485.34
  L 570.84 482.63
  L 568.21 481.70
  L 565.75 481.08
  L 563.32 480.72
  L 560.83 480.64
  L 558.66 480.81
  L 556.44 481.21
  L 554.26 481.83
  L 552.01 482.69
  L 546.01 485.71
  L 539.39 489.87
  L 535.36 492.37
  L 531.22 494.43
  L 526.99 496.04
  L 522.66 497.20
  L 522.66 497.20
  L 522.66 497.20
  L 518.00 497.94
  L 513.24 498.19
  L 508.47 497.94
  L 503.81 497.20
  L 503.81 497.20
  L 499.48 496.04
  L 495.25 494.43
  L 491.12 492.37
  L 487.08 489.87
  L 480.46 485.71
  L 474.46 482.69
  L 472.21 481.83
  L 470.03 481.21
  L 467.81 480.81
  L 465.64 480.65
  L 463.15 480.73
  L 460.72 481.08
  L 458.26 481.70
  L 455.63 482.63
  L 450.06 485.34
  L 442.37 490.05
  L 441.27 490.74
  L 435.87 493.78
  L 430.42 496.04
  L 424.92 497.52
  L 419.38 498.24
  L 419.38 498.24
  L 419.38 498.24
  L 413.98 498.20
  L 408.54 497.43
  L 403.06 495.95
  L 397.54 493.75
  L 394.79 492.31
  L 391.31 490.24
  L 390.23 489.56
  L 382.87 485.15
  L 377.40 482.57
  L 374.79 481.68
  L 372.32 481.08
  L 369.88 480.74
  L 367.36 480.66
  L 363.78 481.02
  L 360.23 481.94
  L 355.26 483.94
  L 350.87 486.44
  L 344.10 490.65
  L 337.66 493.97
  L 333.55 495.64
  L 329.41 496.90
  L 325.26 497.73
  L 321.09 498.14
  L 321.09 498.14
  L 317.42 498.16
  L 313.73 497.85
  L 310.03 497.22
  L 306.31 496.27
  L 303.05 495.10
  L 299.12 493.34
  L 294.51 490.97
  L 289.22 488.00
  L 272.66 478.63
  L 270.91 477.53
  L 269.39 476.29
  L 268.08 474.92
  L 267.00 473.41
  L 265.87 471.07
  L 265.35 469.14
  L 265.19 467.17
  L 265.39 465.10
  L 265.95 463.10
  L 266.84 461.22
  L 268.04 459.51
  L 269.47 458.09
  L 271.16 456.93
  L 273.49 455.86
  L 275.80 455.24
  L 278.11 455.01
  L 280.39 455.13
  L 282.75 455.60
  L 285.27 456.43
  L 287.83 457.57
  L 290.54 459.06
  L 297.44 463.67
  L 301.81 466.66
  L 305.87 468.87
  L 305.87 468.87
  L 308.42 469.88
  L 311.08 470.67
  L 313.84 471.22
  L 316.70 471.55
  L 319.56 471.67
  L 322.31 471.57
  L 324.96 471.26
  L 327.54 470.74
  L 330.23 469.95
  L 332.86 468.91
  L 335.54 467.58
  L 338.20 465.99
  L 340.42 464.54
  L 346.51 460.69
  L 350.87 458.44
  L 353.81 457.29
  L 356.80 456.35
  L 359.81 455.63
  L 362.84 455.13
  L 365.88 454.84
  L 368.93 454.77
  L 371.97 454.93
  L 374.99 455.30
  L 379.16 456.19
  L 383.26 457.52
  L 387.16 459.23
  L 390.96 461.37
  L 396.29 464.84
  L 400.68 467.58
  L 404.65 469.43
  L 408.06 470.51
  L 411.46 471.25
  L 414.85 471.63
  L 418.22 471.66
  L 418.22 471.66
  L 418.22 471.66
  L 418.22 471.66
  L 421.02 471.42
  L 423.82 470.93
  L 426.60 470.19
  L 429.38 469.21
  L 433.10 467.33
  L 438.45 463.87
  L 442.95 460.91
  L 446.06 459.20
  L 450.86 457.21
  L 455.65 455.80
  L 460.44 454.96
  L 465.23 454.71
  L 465.23 454.71
  L 469.79 455.00
  L 474.35 455.81
  L 478.90 457.15
  L 483.45 459.01
  L 488.65 461.96
  L 496.39 467.12
  L 499.78 469.00
  L 503.89 470.42
  L 508.40 471.29
  L 513.23 471.59
  Z"
/>
<rect fill="#513118" x="349.16" y="510.49" width="327.94" height="30.10" rx="14.90"/>
<path fill="#c07e37" d="
  M 676.43 560.22
  L 677.00 560.33
  L 677.48 560.65
  L 677.80 561.13
  L 677.91 561.70
  L 677.91 591.47
  L 677.75 594.75
  L 677.25 598.01
  L 676.44 601.20
  L 675.31 604.29
  L 673.87 607.27
  L 672.14 610.09
  L 670.14 612.73
  L 667.89 615.17
  L 665.40 617.37
  L 662.71 619.33
  L 659.83 621.02
  L 656.79 622.43
  L 653.63 623.54
  L 650.37 624.34
  L 647.05 624.82
  L 643.70 624.98
  L 381.76 624.98
  L 378.41 624.82
  L 375.09 624.34
  L 371.83 623.54
  L 368.67 622.43
  L 365.63 621.02
  L 362.75 619.33
  L 360.06 617.37
  L 357.57 615.17
  L 355.32 612.73
  L 353.32 610.09
  L 351.59 607.27
  L 350.15 604.29
  L 349.02 601.20
  L 348.21 598.01
  L 347.71 594.75
  L 347.55 591.47
  L 347.55 591.47
  L 347.55 561.70
  L 347.66 561.13
  L 347.98 560.65
  L 348.46 560.33
  L 349.03 560.22
  L 676.43 560.22
  Z"
/>
<path fill="#513118" d="
  M 491.1833 736.4658
  L 490.3431 740.9243
  L 489.0607 745.2783
  L 487.3484 749.4856
  L 485.2226 753.5059
  L 482.7039 757.3004
  L 479.8165 760.8326
  L 476.5883 764.0684
  L 473.0502 766.9767
  L 469.2364 769.5294
  L 465.1835 771.7021
  L 460.9308 773.4737
  L 456.5190 774.8272
  L 451.9907 775.7495
  L 447.3895 776.2319
  L 442.7597 776.2696
  L 438.1459 775.8623
  L 433.5925 775.0138
  L 429.1434 773.7325
  L 424.8414 772.0305
  L 420.7279 769.9244
  L 416.8426 767.4343
  L 413.2230 764.5843
  L 409.9037 761.4019
  L 406.9169 757.9175
  L 404.2912 754.1649
  L 402.0520 750.1802
  L 400.2208 746.0017
  L 398.8153 741.6696
  L 397.8490 737.2258
  L 397.3312 732.7129
  L 397.2669 728.1745
  L 397.6567 723.6542
  L 397.6567 723.6542
  L 398.4969 719.1957
  L 399.7793 714.8417
  L 401.4916 710.6344
  L 403.6174 706.6141
  L 406.1361 702.8196
  L 409.0235 699.2874
  L 412.2517 696.0516
  L 415.7898 693.1433
  L 419.6036 690.5906
  L 423.6565 688.4179
  L 427.9092 686.6463
  L 432.3210 685.2928
  L 436.8493 684.3705
  L 441.4505 683.8881
  L 446.0803 683.8504
  L 450.6941 684.2577
  L 455.2475 685.1062
  L 459.6966 686.3875
  L 463.9986 688.0895
  L 468.1121 690.1956
  L 471.9974 692.6857
  L 475.6170 695.5357
  L 478.9363 698.7181
  L 481.9231 702.2025
  L 484.5488 705.9551
  L 486.7880 709.9398
  L 488.6192 714.1183
  L 490.0247 718.4504
  L 490.9910 722.8942
  L 491.5088 727.4071
  L 491.5731 731.9455
  L 491.1833 736.4658
  Z
  M 469.45 729.91
  L 469.33 727.46
  L 468.97 725.03
  L 468.37 722.64
  L 467.54 720.33
  L 466.49 718.11
  L 465.23 716.00
  L 463.77 714.03
  L 462.12 712.21
  L 460.30 710.56
  L 458.33 709.10
  L 456.22 707.84
  L 454.00 706.79
  L 451.69 705.96
  L 449.30 705.36
  L 446.87 705.00
  L 444.42 704.88
  L 441.97 705.00
  L 439.54 705.36
  L 437.15 705.96
  L 434.84 706.79
  L 432.62 707.84
  L 430.51 709.10
  L 428.54 710.56
  L 426.72 712.21
  L 425.07 714.03
  L 423.61 716.00
  L 422.35 718.11
  L 421.30 720.33
  L 420.47 722.64
  L 419.87 725.03
  L 419.51 727.46
  L 419.39 729.91
  L 419.51 732.36
  L 419.87 734.79
  L 420.47 737.18
  L 421.30 739.49
  L 422.35 741.71
  L 423.61 743.82
  L 425.07 745.79
  L 426.72 747.61
  L 428.54 749.26
  L 430.51 750.72
  L 432.62 751.98
  L 434.84 753.03
  L 437.15 753.86
  L 439.54 754.46
  L 441.97 754.82
  L 444.42 754.94
  L 446.87 754.82
  L 449.30 754.46
  L 451.69 753.86
  L 454.00 753.03
  L 456.22 751.98
  L 458.33 750.72
  L 460.30 749.26
  L 462.12 747.61
  L 463.77 745.79
  L 465.23 743.82
  L 466.49 741.71
  L 467.54 739.49
  L 468.37 737.18
  L 468.97 734.79
  L 469.33 732.36
  L 469.45 729.91
  Z"
/>
<path fill="#513118" d="
  M 530.90 709.44
  L 530.82 710.09
  L 530.95 710.94
  L 531.30 711.74
  L 532.71 713.35
  L 535.13 714.97
  L 538.29 716.41
  L 554.42 722.10
  L 558.03 723.46
  L 561.33 724.98
  L 564.27 726.65
  L 566.83 728.44
  L 569.13 730.44
  L 571.03 732.52
  L 572.62 734.78
  L 573.91 737.25
  L 574.63 739.17
  L 575.16 741.20
  L 575.64 745.45
  L 575.49 749.60
  L 574.87 753.49
  L 573.78 757.11
  L 572.20 760.46
  L 570.53 763.05
  L 568.53 765.46
  L 566.19 767.68
  L 563.53 769.72
  L 560.81 771.41
  L 557.93 772.84
  L 554.82 774.04
  L 551.60 774.97
  L 548.24 775.64
  L 544.81 776.04
  L 541.34 776.16
  L 537.84 776.00
  L 533.53 775.47
  L 529.36 774.62
  L 525.33 773.45
  L 521.44 771.95
  L 521.44 771.95
  L 521.44 771.95
  L 521.44 771.95
  L 517.09 769.79
  L 512.92 767.20
  L 508.95 764.16
  L 505.17 760.68
  L 504.97 760.21
  L 505.16 759.73
  L 518.38 745.72
  L 518.72 745.54
  L 519.07 745.68
  L 524.01 749.71
  L 526.70 751.57
  L 529.47 753.09
  L 532.31 754.28
  L 535.23 755.13
  L 535.23 755.13
  L 537.77 755.59
  L 540.37 755.81
  L 543.02 755.78
  L 545.73 755.52
  L 547.21 755.19
  L 548.65 754.63
  L 550.00 753.86
  L 551.19 752.92
  L 552.13 751.89
  L 552.84 750.75
  L 553.23 749.62
  L 553.33 748.43
  L 553.14 747.36
  L 552.67 746.27
  L 551.96 745.27
  L 550.97 744.28
  L 548.32 742.47
  L 545.15 741.11
  L 526.91 734.91
  L 523.83 733.63
  L 520.89 732.05
  L 518.25 730.26
  L 515.84 728.21
  L 513.85 726.06
  L 512.15 723.69
  L 510.84 721.23
  L 509.87 718.58
  L 509.43 716.65
  L 509.17 714.64
  L 509.13 709.95
  L 509.77 705.41
  L 511.08 701.20
  L 513.01 697.40
  L 515.02 694.59
  L 517.38 692.09
  L 520.15 689.83
  L 523.23 687.92
  L 526.59 686.35
  L 530.20 685.15
  L 534.03 684.32
  L 538.05 683.87
  L 538.67 683.84
  L 542.74 683.85
  L 546.91 684.29
  L 551.01 685.13
  L 555.19 686.40
  L 559.36 688.07
  L 563.60 690.17
  L 567.94 692.71
  L 572.34 695.68
  L 572.65 696.20
  L 572.49 696.78
  L 572.47 696.80
  L 560.38 710.78
  L 559.68 711.13
  L 558.93 710.90
  L 556.53 709.07
  L 554.03 707.44
  L 551.55 706.12
  L 549.00 705.05
  L 546.54 704.29
  L 544.02 703.80
  L 541.57 703.60
  L 539.08 703.68
  L 536.80 704.02
  L 534.30 704.87
  L 533.30 705.51
  L 532.45 706.30
  L 532.45 706.30
  L 532.45 706.30
  L 532.45 706.30
  L 531.50 707.72
  L 530.90 709.44
  Z"
/>
<path fill="#513118" d="
  M 777.4933 725.5576
  L 777.7027 730.0986
  L 777.4589 734.6393
  L 776.7641 739.1360
  L 775.6250 743.5454
  L 774.0525 747.8250
  L 772.0619 751.9336
  L 769.6722 755.8317
  L 766.9066 759.4816
  L 763.7916 762.8484
  L 760.3572 765.8994
  L 756.6365 768.6054
  L 752.6654 770.9403
  L 748.4821 772.8815
  L 744.1268 774.4105
  L 739.6416 775.5124
  L 735.0696 776.1768
  L 730.4548 776.3970
  L 725.8417 776.1712
  L 721.2747 775.5013
  L 716.7978 774.3939
  L 712.4542 772.8597
  L 708.2855 770.9133
  L 704.3321 768.5736
  L 700.6319 765.8632
  L 697.2207 762.8080
  L 694.1311 759.4375
  L 691.3931 755.7842
  L 689.0330 751.8832
  L 687.0734 747.7722
  L 685.5333 743.4907
  L 684.4276 739.0799
  L 683.7667 734.5824
  L 683.7667 734.5824
  L 683.5573 730.0414
  L 683.8011 725.5007
  L 684.4959 721.0040
  L 685.6350 716.5946
  L 687.2075 712.3150
  L 689.1981 708.2064
  L 691.5878 704.3083
  L 694.3534 700.6584
  L 697.4684 697.2916
  L 700.9028 694.2406
  L 704.6235 691.5346
  L 708.5946 689.1997
  L 712.7779 687.2585
  L 717.1332 685.7295
  L 721.6184 684.6276
  L 726.1904 683.9632
  L 730.8052 683.7430
  L 735.4183 683.9688
  L 739.9853 684.6387
  L 744.4622 685.7461
  L 748.8058 687.2803
  L 752.9745 689.2267
  L 756.9279 691.5664
  L 760.6281 694.2768
  L 764.0393 697.3320
  L 767.1289 700.7025
  L 769.8669 704.3558
  L 772.2270 708.2568
  L 774.1866 712.3678
  L 775.7267 716.6493
  L 776.8324 721.0601
  L 777.4933 725.5576
  Z
  M 755.67 729.92
  L 755.55 727.46
  L 755.19 725.03
  L 754.59 722.65
  L 753.76 720.33
  L 752.71 718.11
  L 751.45 716.00
  L 749.98 714.03
  L 748.33 712.21
  L 746.51 710.56
  L 744.54 709.09
  L 742.43 707.83
  L 740.21 706.78
  L 737.89 705.95
  L 735.51 705.35
  L 733.08 704.99
  L 730.62 704.87
  L 728.16 704.99
  L 725.73 705.35
  L 723.35 705.95
  L 721.03 706.78
  L 718.81 707.83
  L 716.70 709.09
  L 714.73 710.56
  L 712.91 712.21
  L 711.26 714.03
  L 709.79 716.00
  L 708.53 718.11
  L 707.48 720.33
  L 706.65 722.65
  L 706.05 725.03
  L 705.69 727.46
  L 705.57 729.92
  L 705.69 732.38
  L 706.05 734.81
  L 706.65 737.19
  L 707.48 739.51
  L 708.53 741.73
  L 709.79 743.84
  L 711.26 745.81
  L 712.91 747.63
  L 714.73 749.28
  L 716.70 750.75
  L 718.81 752.01
  L 721.03 753.06
  L 723.35 753.89
  L 725.73 754.49
  L 728.16 754.85
  L 730.62 754.97
  L 733.08 754.85
  L 735.51 754.49
  L 737.89 753.89
  L 740.21 753.06
  L 742.43 752.01
  L 744.54 750.75
  L 746.51 749.28
  L 748.33 747.63
  L 749.98 745.81
  L 751.45 743.84
  L 752.71 741.73
  L 753.76 739.51
  L 754.59 737.19
  L 755.19 734.81
  L 755.55 732.38
  L 755.67 729.92
  Z"
/>
<path fill="#513118" d="
  M 280.47 773.91
  L 259.25 774.35
  L 258.93 774.22
  L 258.79 773.90
  L 258.79 773.90
  L 258.87 763.21
  L 258.86 686.45
  L 259.00 686.04
  L 259.40 685.91
  L 280.15 685.91
  L 280.55 686.04
  L 280.68 686.44
  L 280.68 720.73
  L 280.78 721.05
  L 281.07 720.87
  L 311.14 686.89
  L 311.40 686.64
  L 312.69 686.07
  L 314.71 685.99
  L 315.53 686.00
  L 338.00 686.07
  L 338.65 686.15
  L 338.95 686.39
  L 338.95 686.39
  L 338.91 686.76
  L 338.53 687.29
  L 304.74 723.72
  L 304.51 724.19
  L 304.68 724.66
  L 340.90 773.61
  L 340.94 773.68
  L 340.90 773.91
  L 340.69 774.02
  L 315.40 774.02
  L 314.88 773.90
  L 314.48 773.56
  L 289.94 740.39
  L 289.89 740.32
  L 289.30 740.08
  L 288.72 740.35
  L 280.96 749.32
  L 280.52 750.06
  L 280.37 750.91
  L 280.47 773.91
  Z"
/>
<rect fill="#513118" x="355.95" y="685.95" width="21.62" height="88.12" rx="0.27"/>
<path fill="#513118" d="
  M 616.10 720.96
  L 616.19 721.25
  L 616.44 721.09
  L 646.93 687.43
  L 647.99 686.50
  L 648.97 686.10
  L 651.53 685.93
  L 675.68 685.99
  L 676.08 686.20
  L 676.14 686.64
  L 676.04 686.80
  L 640.51 724.44
  L 640.48 724.83
  L 675.83 773.49
  L 675.89 773.87
  L 675.62 774.14
  L 675.49 774.16
  L 650.78 774.16
  L 649.85 773.93
  L 649.13 773.30
  L 626.29 740.69
  L 625.82 740.36
  L 625.32 740.62
  L 616.40 750.06
  L 615.99 750.71
  L 615.84 751.46
  L 615.84 773.90
  L 615.78 774.08
  L 615.53 774.21
  L 595.19 774.21
  L 594.69 774.05
  L 594.33 773.35
  L 594.33 686.46
  L 594.47 686.05
  L 594.88 685.91
  L 615.76 685.91
  L 615.76 685.91
  L 616.00 686.01
  L 616.10 686.26
  L 616.10 720.96
  Z"
/>
<circle fill="#ececef" cx="444.42" cy="729.91" r="25.03"/>
<circle fill="#ececef" cx="730.62" cy="729.92" r="25.05"/>
</svg>
